<?xml version="1.0" standalone="no"?><!DOCTYPE svg PUBLIC "-//W3C//DTD SVG 1.1//EN" "http://www.w3.org/Graphics/SVG/1.1/DTD/svg11.dtd"><svg class="icon" width="200px" height="200.00px" viewBox="0 0 1024 1024" version="1.1" xmlns="http://www.w3.org/2000/svg"><path fill="#cdcdcd" d="M900.608 962.56H121.856c-14.336 0-25.6-11.264-25.6-25.6V308.736c0-14.336 11.264-25.6 25.6-25.6h778.752c14.336 0 25.6 11.264 25.6 25.6V936.96c0 14.336-11.264 25.6-25.6 25.6zM147.456 911.36h727.552V334.336H147.456V911.36z"  /><path fill="#cdcdcd" d="M985.6 334.336H37.888c-14.336 0-25.6-11.264-25.6-25.6V107.52c0-14.336 11.264-25.6 25.6-25.6h947.712c14.336 0 25.6 11.264 25.6 25.6v201.216c0 14.336-11.264 25.6-25.6 25.6z m-922.112-51.2h896.512V133.12H63.488v150.016zM720.384 506.368H301.056c-14.336 0-25.6-11.264-25.6-25.6s11.264-25.6 25.6-25.6h419.328c14.336 0 25.6 11.264 25.6 25.6s-11.264 25.6-25.6 25.6z"  /><path fill="#cdcdcd" d="M317.44 733.696m-43.008 0a43.008 43.008 0 1 0 86.016 0 43.008 43.008 0 1 0-86.016 0Z"  /><path fill="#cdcdcd" d="M512.512 733.696m-43.008 0a43.008 43.008 0 1 0 86.016 0 43.008 43.008 0 1 0-86.016 0Z"  /><path fill="#cdcdcd" d="M708.096 733.696m-43.008 0a43.008 43.008 0 1 0 86.016 0 43.008 43.008 0 1 0-86.016 0Z"  /></svg>