<?xml version="1.0" standalone="no"?><!DOCTYPE svg PUBLIC "-//W3C//DTD SVG 1.1//EN" "http://www.w3.org/Graphics/SVG/1.1/DTD/svg11.dtd"><svg class="icon" width="200px" height="200.00px" viewBox="0 0 1024 1024" version="1.1" xmlns="http://www.w3.org/2000/svg"><path fill="#333333" d="M761.23625001 535.30062502l-444.08343749 444.08343749c-7.10718748 7.10718748-16.9246875 11.5021875-27.76968752 11.50218752-21.6890625 0-39.271875-17.5828125-39.27187503-39.27187501 0-10.845 4.39593753-20.6625 11.50218753-27.76968748l420.79312503-420.79312502-407.28187504-407.356875c-6.48281253-6.70500005-10.4775-15.85124999-10.47750001-25.92937503 0-20.61375004 16.71093748-37.32468753 37.32468751-37.32468751 10.07906253 0 19.22437499 3.99468749 25.9396875 10.48687499l422.27625001 422.27625001c5.10656252 5.19750003 8.683125 11.91374999 9.99187496 19.40906251-0.81-5.22468751 0.30937502-5.8978125 1.05656255-4.77843748 7.08562499 7.10249998 11.4675 16.90500001 11.46749996 27.73218748 0 10.82625003-4.38187501 20.6296875-11.46843748 27.73218748z"  /></svg>